<svg xmlns="http://www.w3.org/2000/svg" width="37" height="17" viewBox="0 0 37 17">
    <path fill="#FF363E" fill-rule="nonzero" d="M21.179 1.13c-4.689-.48-9.257.018-13.588 1.469-1.636.565-3.744 1.4-5.493 2.932-.107.097-.208.19-.31.291C.688 6.923.194 8.198.277 9.722c0 .01 0 .027.005.04.062.575.056 1.153.055 1.762-.003.413-.002.838.013 1.26.067 1.95 1.348 3.23 3.275 3.257l5.386.073c.933.03 1.726-.255 2.292-.82.566-.567.855-1.365.843-2.306l-.044-3.208c.232-.06.46-.133.674-.202a7.67 7.67 0 0 1 .759-.214c2.381-.5 4.916-.583 7.743-.258 1.454.19 2.57.456 3.57.864a38.13 38.13 0 0 0 .005 2.366c.008.273.012.551.015.83.013.967.325 1.791.902 2.368.576.577 1.396.893 2.369.902l2.67.036c.314.004.615.013.924.021.6.017 1.223.03 1.81.016.914.003 1.69-.291 2.256-.857.561-.561.86-1.341.87-2.278l-.046-3.352a4.995 4.995 0 0 0-1.222-3.247c-1.002-1.17-2.35-2.129-4.249-3.019-2.93-1.384-6.1-2.22-9.973-2.626zm13.048 6.628c.55.658.83 1.387.841 2.248l.045 3.334c-.002.51-.153.925-.427 1.2-.27.269-.676.411-1.191.4-.578.014-1.151-.002-1.766-.015-.309-.009-.622-.013-.94-.022l-2.672-.036c-.555-.007-.983-.152-1.265-.434-.281-.281-.426-.709-.433-1.265-.004-.278-.012-.56-.016-.838-.016-.838-.036-1.627.003-2.437l-.001-.045c-.01-.744-.426-1.045-.787-1.23l-.05-.022c-1.18-.5-2.453-.827-4.145-1.042-3.007-.355-5.707-.261-8.25.273-.317.063-.62.166-.91.257a7.67 7.67 0 0 1-.759.213c-.027.009-.05.013-.076.022a1.28 1.28 0 0 0-.542.315c-.354.354-.352.815-.35.968l.045 3.352c.007.52-.13.939-.404 1.213-.336.336-.824.396-1.187.378l-5.4-.069c-1.076-.014-1.662-.61-1.7-1.725-.018-.39-.019-.78-.015-1.192 0-.619.005-1.26-.062-1.91-.055-1.071.287-1.94 1.07-2.723.075-.075.159-.15.239-.22 1.545-1.355 3.475-2.122 4.982-2.64 4.117-1.382 8.47-1.856 12.935-1.397 3.688.39 6.696 1.18 9.465 2.48 1.704.794 2.88 1.626 3.723 2.61z"/>
</svg>
