<svg xmlns="http://www.w3.org/2000/svg" width="25" height="30" viewBox="0 0 25 30">
    <path fill="#FFF" fill-rule="nonzero" d="M12.316 21.014h.368c3.474 0 6.522-2.768 6.522-5.924V7.819l5.455-5.357a1.122 1.122 0 0 0 0-1.607 1.172 1.172 0 0 0-1.637 0l-3.961 3.89C18.423 2.109 15.717 0 12.684 0h-.368C8.842 0 5.795 2.768 5.795 5.924v9.166c0 .764.18 1.506.5 2.191L5.116 18.44a6.669 6.669 0 0 1-.832-3.183.86.86 0 0 0-.867-.852.86.86 0 0 0-.868.852c0 1.55.457 3.08 1.296 4.432L.339 23.13a1.122 1.122 0 0 0 0 1.607c.226.222.522.333.818.333.296 0 .592-.11.818-.333l3.317-3.256c.128.123.259.244.394.362a10.299 10.299 0 0 0 5.946 2.474v3.979h-3.61a.86.86 0 0 0-.868.852c0 .47.389.852.868.852h9.798a.86.86 0 0 0 .868-.852.86.86 0 0 0-.868-.852h-4.452v-3.98a10.3 10.3 0 0 0 5.946-2.473c1.994-1.732 3.138-4.133 3.138-6.587a.86.86 0 0 0-.868-.852.86.86 0 0 0-.868.852c0 1.966-.93 3.902-2.552 5.31-1.517 1.318-3.512 2.073-5.473 2.073h-.382c-1.96 0-3.956-.755-5.473-2.073a7.96 7.96 0 0 1-.316-.29l1.144-1.125c1.204 1.135 2.871 1.863 4.652 1.863zm5.154-5.924c0 2.208-2.281 4.22-4.786 4.22h-.368c-1.296 0-2.531-.54-3.423-1.366l8.577-8.421v5.567zm-9.94 0V5.924c0-2.208 2.281-4.22 4.786-4.22h.368c2.505 0 4.786 2.012 4.786 4.22v.385l-9.823 9.645a3.33 3.33 0 0 1-.117-.864z"/>
</svg>
