<svg xmlns="http://www.w3.org/2000/svg" width="35" height="27" viewBox="0 0 35 27">
    <g fill="#FFF" fill-rule="nonzero" stroke="#FFF" stroke-width=".5">
        <path d="M12.083 24.528H5.616c-1.758 0-3.184-1.441-3.184-3.205V5.635c0-1.77 1.431-3.205 3.184-3.205h6.572a.71.71 0 0 0 .71-.715.71.71 0 0 0-.71-.715H5.616C3.074 1 1.012 3.082 1.012 5.635v15.688c0 2.558 2.067 4.635 4.604 4.635h6.467a.71.71 0 0 0 .71-.715.713.713 0 0 0-.71-.715zM22.891 2.43h6.467c1.757 0 3.183 1.44 3.183 3.205v15.688c0 1.77-1.43 3.205-3.183 3.205h-6.572a.71.71 0 0 0-.71.715.71.71 0 0 0 .71.715h6.572c2.541 0 4.604-2.082 4.604-4.635V5.635C33.962 3.076 31.894 1 29.358 1H22.89a.71.71 0 0 0-.71.715c0 .397.32.715.71.715z"/>
        <path d="M17.255 7.209l-4.544 4.514a.705.705 0 0 0 0 1.005c.28.28.73.28 1.011 0l3.326-3.304v14.412c0 .395.318.71.716.71a.71.71 0 0 0 .715-.71V9.424l3.326 3.304a.716.716 0 0 0 1.223-.5.69.69 0 0 0-.212-.5l-4.544-4.514a.718.718 0 0 0-1.017-.005z"/>
    </g>
</svg>
