<svg xmlns="http://www.w3.org/2000/svg" width="38" height="34" viewBox="0 0 38 34">
    <g fill="none" fill-rule="evenodd">
        <path fill="#FFF" fill-rule="nonzero" d="M36.119 7.494a.96.96 0 0 0-.966.044l-8.122 5.266V10.63c0-1.78-1.48-3.23-3.299-3.23H9.145c-1.819 0-3.299 1.45-3.299 3.23v14.279c0 1.78 1.48 3.228 3.299 3.228h14.587c1.82 0 3.3-1.448 3.3-3.228v-2.174L35.151 28a.957.957 0 0 0 .967.044.92.92 0 0 0 .496-.813V8.307a.92.92 0 0 0-.496-.813zM25.146 24.91c0 .762-.634 1.383-1.414 1.383H9.145c-.78 0-1.414-.62-1.414-1.383v-14.28c0-.762.634-1.383 1.414-1.383h14.587c.78 0 1.414.62 1.414 1.384v14.278zm9.584.605l-7.699-4.992v-5.505l7.7-4.992v15.489z"/>
        <path stroke="#FFF" stroke-linecap="round" stroke-linejoin="bevel" stroke-width="2.5" d="M2 32L36.615 2"/>
    </g>
</svg>
