<svg xmlns="http://www.w3.org/2000/svg" width="57" height="40" viewBox="0 0 57 40">
    <path fill="#FFF" fill-rule="nonzero" d="M55.263 8.062a3.787 3.787 0 0 0-3.608-.244L44 11.312v-.13c0-1.802-1.483-3.27-3.307-3.27H36V2.967C36 1.331 34.654 0 33 0H1C.448 0 0 .442 0 .989c0 .547.448.989 1 .989h32c.551 0 1 .443 1 .989v4.945H3.307C1.483 7.913 0 9.38 0 11.182V36.29c0 1.803 1.483 3.27 3.307 3.27h37.386c1.824 0 3.307-1.466 3.307-3.27v-.13l7.655 3.495a3.78 3.78 0 0 0 3.609-.244A3.697 3.697 0 0 0 57 36.273V11.2c0-1.276-.649-2.45-1.737-3.138zM42 36.29a1.3 1.3 0 0 1-1.307 1.293H3.307A1.3 1.3 0 0 1 2 36.29V11.183A1.3 1.3 0 0 1 3.307 9.89h37.386A1.3 1.3 0 0 1 42 11.183V36.29zm13-.017c0 .608-.297 1.145-.814 1.472a1.743 1.743 0 0 1-1.692.114L44 33.983V13.49l8.493-3.876a1.746 1.746 0 0 1 1.692.114c.517.327.815.865.815 1.472v25.073z"/>
</svg>
